<svg aria-hidden="true" style="color: #fff; position: absolute; width: 0; height: 0; overflow: hidden;" version="1.1" xmlns="http://www.w3.org/2000/svg" xmlns:xlink="http://www.w3.org/1999/xlink">
<defs>

<symbol id="icon-cloud" viewBox="0 0 24 24">
<path d="M18.42,9.21a7,7,0,0,0-13.36,1.9A4,4,0,0,0,6,19H17a5,5,0,0,0,1.42-9.79ZM17,17H6a2,2,0,0,1,0-4,1,1,0,0,0,1-1,5,5,0,0,1,9.73-1.61,1,1,0,0,0,.78.66A3,3,0,0,1,17,17Z"></path>
</symbol>
<symbol id="icon-water" viewBox="0 0 24 24">
<path d="M2.72,7.65a2.56,2.56,0,0,1,.56.24,4,4,0,0,0,4.1,0,2.6,2.6,0,0,1,2.56,0,4.15,4.15,0,0,0,4.12,0,2.6,2.6,0,0,1,2.56,0,4.25,4.25,0,0,0,2.08.56,3.88,3.88,0,0,0,2-.56,2.56,2.56,0,0,1,.56-.24,1,1,0,0,0-.56-1.92,4.45,4.45,0,0,0-1,.45,2.08,2.08,0,0,1-2.1,0,4.64,4.64,0,0,0-4.54,0,2.11,2.11,0,0,1-2.12,0,4.64,4.64,0,0,0-4.54,0,2.08,2.08,0,0,1-2.1,0,4.45,4.45,0,0,0-1-.45,1,1,0,1,0-.56,1.92Zm18,8.08a4.45,4.45,0,0,0-1,.45,2.08,2.08,0,0,1-2.1,0,4.64,4.64,0,0,0-4.54,0,2.11,2.11,0,0,1-2.12,0,4.64,4.64,0,0,0-4.54,0,2.08,2.08,0,0,1-2.1,0,4.45,4.45,0,0,0-1-.45,1,1,0,1,0-.56,1.92,2.56,2.56,0,0,1,.56.24,4,4,0,0,0,4.1,0,2.6,2.6,0,0,1,2.56,0,4.15,4.15,0,0,0,4.12,0,2.6,2.6,0,0,1,2.56,0,4.25,4.25,0,0,0,2.08.56,3.88,3.88,0,0,0,2-.56,2.56,2.56,0,0,1,.56-.24,1,1,0,0,0-.56-1.92Zm0-5a4.45,4.45,0,0,0-1,.45,2.08,2.08,0,0,1-2.1,0,4.64,4.64,0,0,0-4.54,0,2.11,2.11,0,0,1-2.12,0,4.64,4.64,0,0,0-4.54,0,2.08,2.08,0,0,1-2.1,0,4.45,4.45,0,0,0-1-.45A1,1,0,0,0,2,11.41a1,1,0,0,0,.68,1.24,2.56,2.56,0,0,1,.56.24,4,4,0,0,0,4.1,0,2.6,2.6,0,0,1,2.56,0,4.15,4.15,0,0,0,4.12,0,2.6,2.6,0,0,1,2.56,0,4.25,4.25,0,0,0,2.08.56,3.88,3.88,0,0,0,2-.56,2.56,2.56,0,0,1,.56-.24,1,1,0,0,0-.56-1.92Z"/>
</symbol>
<symbol id="icon-rain" viewBox="0 0 24 24">
<path d="M12.89,18.06a1,1,0,0,0-1.28.6l-.73,2a1,1,0,0,0,.6,1.28,1,1,0,0,0,.34.06,1,1,0,0,0,.94-.66l.73-2A1,1,0,0,0,12.89,18.06Zm-4,0a1,1,0,0,0-1.28.6l-.73,2a1,1,0,0,0,.6,1.28,1,1,0,0,0,.34.06,1,1,0,0,0,.94-.66l.73-2A1,1,0,0,0,8.89,18.06Zm0-7a1,1,0,0,0-1.28.6l-1.1,3A1,1,0,0,0,7.45,16a1,1,0,0,0,.94-.66l1.1-3A1,1,0,0,0,8.89,11.06Zm4,0a1,1,0,0,0-1.28.6l-1.1,3A1,1,0,0,0,11.45,16a1,1,0,0,0,.94-.66l1.1-3A1,1,0,0,0,12.89,11.06Zm5.53-4.84A7,7,0,0,0,5.06,8.11,4,4,0,0,0,2,12a4,4,0,0,0,1.34,3,1,1,0,1,0,1.32-1.5A2,2,0,0,1,4,12a2,2,0,0,1,2-2A1,1,0,0,0,7,9a5,5,0,0,1,9.73-1.61,1,1,0,0,0,.78.67A3,3,0,0,1,20,11a2.91,2.91,0,0,1-.74,2,1,1,0,0,0,1.48,1.34,5,5,0,0,0-2.32-8.08ZM16.89,18.06a1,1,0,0,0-1.28.6l-.73,2a1,1,0,0,0,.6,1.28,1,1,0,0,0,.34.06,1,1,0,0,0,.94-.66l.73-2A1,1,0,0,0,16.89,18.06Zm0-7a1,1,0,0,0-1.28.6l-1.1,3A1,1,0,0,0,15.45,16a1,1,0,0,0,.94-.66l1.1-3A1,1,0,0,0,16.89,11.06Z"/>
</symbol>
<symbol id="icon-wind" viewBox="0 0 24 24">
<path d="M3.5,9a1,1,0,1,0-1-1A1,1,0,0,0,3.5,9Zm4,0h7a3,3,0,0,0,0-6,3.06,3.06,0,0,0-1.5.4,1,1,0,0,0-.37,1.37A1,1,0,0,0,14,5.13,1.09,1.09,0,0,1,14.5,5a1,1,0,0,1,0,2h-7a1,1,0,0,0,0,2Zm-4,4h7a1,1,0,0,0,0-2h-7a1,1,0,0,0,0,2Zm17-4a1,1,0,1,0-1-1A1,1,0,0,0,20.5,9Zm-2,2h-4a1,1,0,0,0,0,2h4a1,1,0,0,1,0,2,1,1,0,0,0,0,2,3,3,0,0,0,0-6Zm-6,4h-4a1,1,0,0,0,0,2h4a1,1,0,0,1,0,2,1.09,1.09,0,0,1-.5-.13,1,1,0,1,0-1,1.73,3.06,3.06,0,0,0,1.5.4,3,3,0,0,0,0-6Zm-8,0h-1a1,1,0,0,0,0,2h1a1,1,0,0,0,0-2Z"/>
</symbol>
</defs>
</svg>